<svg baseProfile="tiny" xmlns="http://www.w3.org/2000/svg" viewBox="0 0 267.2 28.4"><path fill="#FFF" d="M0 0h42.5v28H0V0z"/><path fill="#034EA2" d="M.6.5h41.3v26.9H.6z"/><path fill="#FFF" d="M41.6.8v26.4H.8V.8h40.8m.5-.5H.3v27.4h41.8V.3z"/><path fill="#FFF100" d="M20.4 6.5l.8-.6.9.6-.3-1 .8-.6h-1l-.4-1-.3 1h-1.1l.9.6-.3 1zM15.9 7.7l.9-.6.8.6-.3-1 .9-.6h-1.1l-.3-1-.4 1h-1l.8.6-.3 1zM13.5 8.3l-.3 1h-1.1l.9.6-.4 1 .9-.6.9.6-.4-1 .9-.6h-1.1l-.3-1zM12.3 14.6l.9.6-.4-1 .9-.6h-1.1l-.3-1-.3 1h-1.1l.9.6-.4 1 .9-.6zM13.8 17.9l-.3-1-.3 1h-1.1l.9.6-.4 1 .9-.6.9.6-.4-1 .9-.6h-1.1zM17.1 21.1l-.3-1-.4 1h-1l.8.6-.3 1 .9-.6.8.6-.3-1 .9-.6h-1.1zM21.6 22.2l-.4-1-.3 1h-1.1l.9.7-.3.9.8-.6.9.6-.3-.9.8-.7h-1zM26 21.1l-.3-1-.4 1h-1l.8.6-.3 1 .9-.6.8.6-.3-1 .9-.6H26zM29.3 17.9l-.4-1-.3 1h-1.1l.9.6-.3 1 .8-.6.9.6-.3-1 .8-.6h-1zM31.5 13.6h-1l-.4-1-.3 1h-1.1l.9.6-.3 1 .8-.6.9.6-.3-1 .8-.6zM28.1 10.8l.8-.6.9.6-.3-.9.8-.6h-1l-.4-1-.3 1h-1.1l.9.6-.3.9zM25.7 5.1l-.3 1h-1.1l.9.6-.4 1 .9-.6.8.6-.3-1 .9-.6H26l-.3-1z"/><path fill="#FFF" d="M54.2 10.5c-.7 0-1.2-.1-1.7-.4-.4-.2-.8-.6-1-1-.2-.4-.4-.9-.5-1.4-.1-.5-.1-1-.1-1.6 0-.6 0-1.1.1-1.6s.2-1 .5-1.4c.2-.4.6-.8 1-1 .4-.3 1-.4 1.7-.4h.5c.2 0 .4 0 .6.1.2 0 .4.1.6.1.2 0 .4.1.6.2.1.1.2.1.2.2v.2l-.1.3c0 .1-.1.1-.1.2-.1.1-.2.1-.3.1-.3 0-.6-.1-1-.1h-1c-.5 0-.8.1-1.1.2-.3.2-.5.4-.6.7-.1.3-.2.6-.3 1 0 .4-.1.8-.1 1.3 0 .4 0 .8.1 1.2 0 .4.1.7.3 1 .1.3.3.5.6.7.3.2.6.2 1 .2s.7 0 1.1-.1c.3 0 .7-.1 1-.1.1 0 .3 0 .3.1 0 0 .1.1.1.2l.1.4v.2c0 .1-.2.2-.2.2-.2.1-.3.1-.6.2-.2 0-.4.1-.6.1-.2 0-.4 0-.6.1-.2-.1-.4-.1-.5-.1zm6.4 0c-.6 0-1.1-.1-1.5-.3-.4-.2-.6-.5-.8-.8-.2-.4-.3-.7-.4-1.1 0-.4-.1-.8-.1-1.1 0-.3 0-.6.1-1s.2-.7.3-1c.2-.3.5-.6.8-.8.5-.4 1-.5 1.6-.5.6 0 1.1.1 1.4.3.4.2.7.4.8.8.2.3.3.7.4 1 .1.4.1.8.1 1.1 0 .4 0 .8-.1 1.1 0 .4-.2.8-.3 1.1-.2.3-.5.6-.8.8-.4.3-.9.4-1.5.4zm0-5.4c-.3 0-.5 0-.7.1-.2.1-.3.2-.4.4-.1.2-.2.4-.2.7 0 .3-.1.6-.1 1s0 .7.1 1c0 .3.1.5.2.7.1.2.2.3.4.4.2.1.4.1.7.1.3 0 .6 0 .8-.1.2-.1.3-.2.4-.4.1-.2.2-.4.2-.6 0-.3.1-.6.1-1s0-.7-.1-1c0-.3-.1-.5-.2-.6-.1-.2-.3-.3-.4-.4-.3-.3-.5-.3-.8-.3zm7.7 1.6h-3.4c-.2 0-.3-.2-.3-.3v-.3c0-.1 0-.2.1-.3.1 0 .1-.1.2-.1h3.4c.1 0 .2 0 .2.1.1 0 .1.1.1.3v.4c0 .1-.1.2-.3.2zm3.1 3.7h-.5c-.2 0-.4-.1-.4-.4V5.1H70c-.2 0-.4-.1-.4-.4v-.3c0-.2.1-.4.4-.4h.5v-.5c0-.3 0-.6.1-.9.1-.3.2-.5.4-.7.2-.2.4-.3.7-.4.3-.1.6-.2 1-.2h.7c.1 0 .3 0 .4.1.2 0 .3.1.4.1.1.1.2.1.2.2v.2l-.1.3c0 .1-.1.2-.2.2h-.3c-.3 0-.5-.1-.6-.1h-.4c-.4 0-.7.1-.8.2-.2.2-.2.4-.2.8v.5h1.4c.2 0 .4.1.4.4v.4c0 .2-.1.4-.4.4h-1.4v4.9c-.1.4-.2.5-.4.5zm4.7 0h-.5c-.2 0-.4-.1-.4-.4V4.4c0-.1 0-.2.1-.3.1 0 .1-.1.2-.1h.5c.2 0 .3.1.3.4V10c.2.3.1.4-.2.4zm-.2-7.1c-.3 0-.5-.1-.6-.2-.1-.1-.1-.3-.1-.5s0-.3.1-.5c.1-.1.3-.2.6-.2s.5.1.6.2c.1.1.1.3.1.5s0 .3-.1.5c-.1.1-.3.2-.6.2zm7.3 7.1h-.5c-.2 0-.4-.1-.4-.4V6.3v-.7c0-.2-.1-.3-.1-.4L82 5c-.2-.1-.5-.1-.9 0-.2.1-.4.1-.6.2-.2.1-.4.1-.6.2-.1.1-.2.1-.3.1v4.3c0 .2-.1.4-.4.4h-.5c-.2 0-.3-.1-.3-.4V4.4c0-.2.1-.4.3-.4h.5c.1 0 .2 0 .3.1.1.1.1.2.1.3v.2c.1 0 .1-.1.2-.1.2-.1.3-.2.5-.3.2-.1.4-.2.6-.2.2-.1.5-.1.7-.1.4 0 .8.1 1 .2.3.1.5.3.6.5.1.2.2.5.3.8 0 .3.1.6.1.9V10c0 .3-.2.4-.4.4zm3.7.1c-.7 0-1.1-.2-1.4-.5-.3-.3-.5-.8-.5-1.4 0-.7.2-1.3.6-1.7.4-.4 1-.6 1.9-.6h1.6v-.2c0-.4-.1-.7-.3-.8-.2-.2-.5-.2-1-.2H86.1c-.4.1-.5-.1-.5-.1l-.1-.3v-.3c0-.1.1-.1.2-.2.1 0 .3-.1.5-.1.3-.1.5-.1.7-.1H88c.5 0 .9.1 1.2.2.3.1.6.3.7.5.2.2.3.5.3.8 0 .3.1.6.1.9v3h.2c.5.1.5.3.5.3v.3c0 .1 0 .2-.1.2-.1.1-.2.1-.3.1h-.5c-.3 0-.6-.1-.7-.2-.1-.1-.2-.3-.3-.5-.3.2-.6.3-.9.4-.4.4-.8.5-1.3.5zm.5-3c-.3 0-.6.1-.8.2-.2.1-.3.4-.3.9 0 .3.1.5.2.6.1.1.2.1.7.1.1 0 .3 0 .5-.1.2 0 .4-.1.5-.2.2-.1.4-.1.5-.2.1-.1.3-.1.4-.2V7.5h-1.7zm9.6 2.9h-.5c-.2 0-.4-.1-.4-.4V6.3v-.7c0-.2-.1-.3-.1-.4l-.2-.2c-.2-.1-.5-.1-.9 0-.2.1-.4.1-.6.2-.2.1-.4.1-.6.2-.1.1-.2.1-.3.1v4.3c0 .2-.1.4-.4.4h-.5c-.2 0-.3-.1-.3-.4V4.4c0-.2.1-.4.3-.4h.5c.1 0 .2 0 .3.1.1.1.1.2.1.3v.2c.1 0 .1-.1.2-.1.2-.1.3-.2.5-.3.2-.1.4-.2.6-.2.2-.1.5-.1.7-.1.4 0 .8.1 1 .2.3.1.5.3.6.5.1.2.2.5.3.8 0 .3.1.6.1.9V10c0 .3-.2.4-.4.4zm4.5.1c-.6 0-1-.1-1.4-.3-.4-.2-.6-.4-.8-.7-.2-.3-.3-.7-.4-1.1-.1-.4-.1-.8-.1-1.3 0-.4 0-.8.1-1.2.1-.3.2-.6.4-.9.2-.3.5-.6.8-.8.4-.2.8-.3 1.4-.3h.9c.2 0 .3.1.5.1s.3.1.5.2c.1.1.2.1.2.2v.2l-.1.3c0 .1-.1.2-.2.2h-.3l-.9-.1c-.7-.1-1.1-.1-1.4.1-.2.1-.3.2-.4.3-.1.2-.2.4-.2.6 0 .3-.1.6-.1 1s0 .8.1 1.1c0 .3.1.5.2.7.1.2.2.3.4.3.2.1.4.1.6.1h2c.1 0 .2.1.2.3l.1.3c0 .2 0 .3-.2.4-.2.1-.6.2-.9.2-.3.1-.7.1-1 .1zm5.9 0c-.6 0-1.1-.1-1.4-.3-.4-.2-.6-.4-.8-.8-.2-.3-.3-.7-.4-1.1-.1-.4-.1-.8-.1-1.2 0-.3 0-.6.1-1s.2-.8.4-1.1c.2-.3.5-.6.8-.9.4-.2.8-.3 1.4-.3.6 0 1 .1 1.4.3.3.2.6.4.8.7.2.3.3.6.4.9.1.3.1.7.1 1 0 .2 0 .4-.1.6-.1.2-.3.3-.6.3H106c0 .3 0 .5.1.7.1.2.1.4.3.5.1.1.3.2.4.3.3.1.6.1 1.1.1h1.7c.1 0 .2.1.2.3l.1.3c0 .2 0 .3-.2.4-.1.1-.3.1-.4.1-.2 0-.4.1-.5.1-.2 0-.4.1-.6.1h-.8zM106 6.6h2.7c0-.2 0-.3-.1-.5 0-.2-.1-.4-.2-.5-.1-.2-.2-.3-.4-.4-.2-.1-.4-.1-.7-.1-.3 0-.5 0-.6.1-.2.1-.3.2-.4.3-.1.1-.2.3-.2.5-.1.2-.1.4-.1.6zm7.5 3.9c-.4 0-.8-.1-1.1-.2-.3-.1-.5-.4-.7-.7-.2-.3-.3-.6-.4-1-.1-.4-.1-.8-.1-1.3s0-1 .1-1.4c.1-.4.2-.8.4-1.1.2-.3.5-.5.8-.7.3-.1.8-.2 1.3-.2.2 0 .5 0 .8.1.2 0 .5.1.8.2V1.7c0-.1 0-.2.1-.3.1-.1.2-.1.3-.1h.5s.2 0 .3.1c0 .1.1.1.1.3V10c0 .2-.1.4-.3.4h-.5c-.1 0-.2 0-.2-.1-.1-.1-.1-.2-.1-.3v-.2c-.1 0-.1.1-.2.1-.2.1-.3.2-.5.3-.2.1-.4.2-.6.2-.4.1-.6.1-.8.1zm.3-5.4c-.2 0-.4 0-.6.1-.2.1-.3.2-.4.3-.1.2-.2.4-.2.7 0 .3-.1.7-.1 1.1 0 .5 0 .8.1 1.1 0 .3.1.5.2.6.1.1.2.2.3.2.2.1.5.1.9 0 .2-.1.4-.1.6-.2.2-.1.4-.1.5-.2.1-.1.2-.1.3-.2V5.3c-.3-.1-.6-.1-.8-.2h-.8zm11.1 5.4h-.6c-.2 0-.4 0-.6-.1-.2 0-.4-.1-.6-.1-.2 0-.4-.1-.5-.1-.2-.1-.3-.2-.4-.3V1.7c0-.1 0-.2.1-.3.1-.1.1-.1.3-.1h.5c.1 0 .2 0 .3.1.1.1.1.2.1.3v2.5c.3-.1.6-.2.8-.2.3-.1.6-.1.8-.1.5 0 .9.1 1.3.2.3.2.6.4.8.7.2.3.3.6.4 1 .1.4.1.8.1 1.3s0 1-.1 1.4c-.1.4-.2.8-.4 1.1-.2.3-.5.5-.9.7-.4.2-.8.2-1.4.2zm-1.5-1.3c.2 0 .4.1.6.1.5 0 1 .1 1.4 0 .2 0 .3-.1.4-.3.1-.1.2-.3.3-.6.1-.3.1-.6.1-1.1 0-.4 0-.8-.1-1.1 0-.3-.1-.5-.2-.7-.1-.2-.2-.3-.4-.3-.3-.2-.9-.1-1.4 0-.3 0-.6.1-.8.2v3.8zm7.4 3.4h-.6c-.1 0-.2-.1-.2-.1-.1-.1-.1-.2 0-.3l.7-1.9-2.2-5.8v-.2c0-.1.1-.2.3-.2h.7c.1 0 .2 0 .2.1 0 0 .1.1.1.2l1.6 4.4c.1-.2.2-.4.2-.7l.3-.9 1-2.8c.1-.2.2-.3.3-.3h.7c.1 0 .2.1.2.1.1.1 0 .2 0 .3l-2.9 7.9c0 .1-.1.1-.1.2h-.3zm3-8.3zm7.3 6.2c-.3 0-.5 0-.7-.1-.2-.1-.4-.2-.5-.3-.1-.1-.2-.3-.2-.5s-.1-.4-.1-.6V5.1h-.5c-.2 0-.4-.1-.4-.4v-.3c0-.2.1-.4.4-.4h.5V2.9c0-.1.1-.2.1-.3.1-.1.1-.1.2-.1l.5-.1h.3c.1.1.1.2.1.3v1.4h1.2c.1 0 .2 0 .3.1 0 .1.1.1.1.2v.4c0 .1 0 .2-.1.3-.1.1-.2.1-.3.1h-1.2v3.9c0 .1 0 .1.1.1 0 0 .1.1.2.1H142.5c.1 0 .1.1.1.2l.1.3c0 .2-.1.3-.2.4-.1.1-.2.1-.3.1-.1 0-.3.1-.4.1-.1 0-.3 0-.4.1h-.3zm7.5-.1h-.5c-.2 0-.4-.1-.4-.4V6.2v-.6c0-.1-.1-.3-.1-.3l-.2-.2c-.2-.1-.5-.1-.9 0-.2.1-.4.1-.6.2-.2.1-.4.1-.6.2-.1.1-.2.1-.3.1v4.3c0 .2-.1.4-.4.4h-.6c-.2 0-.4-.1-.4-.4V1.7c0-.2.1-.4.4-.4h.5c.2 0 .4.1.4.4v2.9c.1 0 .1-.1.2-.1l.6-.3c.2-.1.4-.2.6-.2.2-.1.5-.1.7-.1.4 0 .8.1 1 .2.3.1.5.3.6.5.1.2.2.5.3.8 0 .3.1.6.1.9V10c0 .3-.2.4-.4.4zm4.6.1c-.6 0-1.1-.1-1.4-.3-.4-.2-.6-.4-.8-.8-.2-.3-.3-.7-.4-1.1-.1-.4-.1-.8-.1-1.2 0-.3 0-.6.1-1s.2-.8.4-1.1c.2-.3.5-.6.8-.9.4-.2.8-.3 1.4-.3.6 0 1 .1 1.4.3.3.2.6.4.8.7.2.3.3.6.4.9.1.3.1.7.1 1 0 .2 0 .4-.1.6-.1.2-.3.3-.6.3h-3.4c0 .3 0 .5.1.7.1.2.1.4.3.5.1.1.3.2.4.3.3.1.6.1 1.1.1h1.7c.1 0 .2.1.2.3l.1.3c0 .2 0 .3-.2.4-.1.1-.3.1-.4.1-.2 0-.4.1-.5.1-.2 0-.4.1-.6.1h-.8zm-1.4-3.9h2.7c0-.2 0-.3-.1-.5 0-.2-.1-.4-.2-.5-.1-.2-.2-.3-.4-.4-.2-.1-.4-.1-.7-.1-.3 0-.5 0-.6.1-.2.1-.3.2-.4.3-.1.1-.2.3-.2.5-.1.2-.1.4-.1.6zm12.8 3.9c-.7 0-1.2-.1-1.7-.4-.4-.2-.8-.6-1-1-.2-.4-.4-.9-.5-1.4-.1-.5-.1-1-.1-1.6 0-.6 0-1.1.1-1.6s.2-1 .5-1.4c.2-.4.6-.8 1-1 .4-.3 1-.4 1.7-.4h.5c.2 0 .4 0 .6.1.2 0 .4.1.6.1.2 0 .4.1.6.2.1.1.2.1.2.2v.3l-.1.3v.2c-.1.1-.2.1-.3.1-.3 0-.6-.1-1-.1-.4-.1-.7-.1-1.1-.1-.5 0-.8.1-1.1.2-.3.2-.5.4-.6.7-.1.3-.2.6-.3 1 0 .4-.1.8-.1 1.3 0 .4 0 .8.1 1.2 0 .4.1.7.3 1 .1.3.3.5.6.7.3.2.6.2 1 .2s.7 0 1.1-.1c.3 0 .7-.1 1-.1.1 0 .3 0 .3.1 0 0 .1.1.1.2l.1.4v.2c0 .1-.2.2-.2.2-.2.1-.3.1-.6.2-.2 0-.4.1-.6.1-.2 0-.4 0-.6.1-.2-.1-.4-.1-.5-.1zm6.3 0c-.6 0-1.1-.1-1.5-.3-.4-.2-.6-.5-.8-.8-.2-.3-.3-.7-.3-1.1 0-.4-.1-.8-.1-1.1 0-.3 0-.6.1-1s.2-.7.3-1c.2-.3.5-.6.8-.8.4-.2.8-.3 1.4-.3.6 0 1.1.1 1.4.3.4.2.7.4.8.8.2.3.3.7.4 1 .1.4.1.8.1 1.1 0 .4 0 .7-.1 1.1 0 .4-.2.8-.3 1.1-.2.3-.5.6-.8.8-.2.1-.7.2-1.4.2zm0-5.4c-.3 0-.5 0-.7.1-.2.1-.3.2-.4.4-.1.2-.2.4-.2.7 0 .3-.1.6-.1 1s0 .7.1 1c0 .3.1.5.2.6.1.2.2.3.4.4.2.1.4.1.7.1.3 0 .6 0 .8-.1.2-.1.3-.2.4-.4.1-.2.2-.4.2-.6 0-.3.1-.6.1-1s0-.7-.1-1c0-.3-.1-.5-.2-.6-.1-.2-.3-.3-.4-.4-.2-.2-.4-.2-.8-.2zm9.2 5.3h-.5c-.2 0-.4-.1-.4-.4V6.3v-.7c0-.2-.1-.3-.1-.4l-.2-.2c-.2-.1-.5-.1-.9 0-.2.1-.4.1-.6.2-.2.1-.4.1-.6.2-.1.1-.2.1-.3.1v4.3c0 .2-.1.4-.4.4h-.5c-.2 0-.4-.1-.4-.4V4.4c0-.2.1-.4.4-.4h.5c.1 0 .2 0 .3.1.1.1.1.2.1.3v.2c.1 0 .1-.1.2-.1.2-.1.3-.2.5-.3.2-.1.4-.2.6-.2.2-.1.5-.1.7-.1.4 0 .8.1 1 .2.3.1.5.3.6.5.1.2.2.5.3.8 0 .3.1.6.1.9V10c0 .3-.2.4-.4.4zm6.8 0h-.5c-.2 0-.4-.1-.4-.4V6.3v-.7c0-.2-.1-.3-.1-.4l-.2-.2c-.2-.1-.5-.1-.9 0-.2.1-.4.1-.6.2-.2.1-.4.1-.6.2-.1.1-.2.1-.3.1v4.3c0 .2-.1.4-.4.4h-.5c-.2 0-.4-.1-.4-.4V4.4c0-.2.1-.4.4-.4h.5c.1 0 .2 0 .3.1.1.1.1.2.1.3v.2c.1 0 .1-.1.2-.1.2-.1.3-.2.5-.3.2-.1.4-.2.6-.2.2-.1.5-.1.7-.1.4 0 .8.1 1 .2.3.1.5.3.6.5.1.2.2.5.3.8 0 .3.1.6.1.9V10c0 .3-.1.4-.4.4zm4.6.1c-.6 0-1.1-.1-1.4-.3-.4-.2-.6-.4-.8-.8-.2-.3-.3-.7-.4-1.1-.1-.4-.1-.8-.1-1.2 0-.3 0-.7.1-1 .1-.4.2-.8.4-1.1.2-.3.5-.6.8-.9.4-.2.8-.3 1.4-.3.6 0 1 .1 1.4.3.3.2.6.4.8.7.2.3.3.6.4.9.1.3.1.7.1 1 0 .2 0 .4-.1.6-.1.2-.3.3-.6.3h-3.4c0 .3 0 .5.1.8.1.2.1.4.3.5.1.1.3.2.4.3.3.1.6.1 1.1.1h1.7c.1 0 .2.1.2.3l.1.3c0 .2 0 .3-.2.4-.1.1-.3.1-.4.1-.2 0-.4.1-.5.1-.2 0-.4.1-.6.1-.5-.1-.7-.1-.8-.1zm-1.4-3.9h2.7c0-.2 0-.3-.1-.5 0-.2-.1-.4-.2-.5-.1-.2-.2-.3-.4-.4-.2-.1-.4-.1-.7-.1-.3 0-.5 0-.6.1-.2.1-.3.2-.4.3-.1.1-.2.3-.2.5-.1.2-.1.4-.1.6zm7.9 3.9c-.6 0-1-.1-1.4-.3-.4-.2-.6-.4-.8-.7-.2-.3-.3-.7-.4-1.1-.1-.4-.1-.8-.1-1.3 0-.4 0-.8.1-1.2.1-.4.2-.7.4-1.1.2-.3.5-.6.8-.8.4-.2.8-.3 1.4-.3h.9c.2 0 .3.1.5.1s.3.1.5.2c.1.1.2.1.2.2v.5c0 .1-.1.2-.2.2h-.3l-.9-.1c-.7-.1-1.1-.1-1.4.1-.2.1-.3.2-.4.3-.1.2-.2.4-.2.6 0 .3-.1.6-.1 1s0 .8.1 1.1c0 .3.1.5.2.7.1.2.2.3.4.3.2.1.4.1.6.1h2c.1 0 .2.1.2.3v.3c0 .2 0 .3-.2.4-.2.1-.6.2-.9.2-.3.3-.6.3-1 .3zm5.4 0c-.3 0-.5 0-.7-.1-.2-.1-.4-.2-.5-.3-.1-.1-.2-.3-.2-.5s-.1-.4-.1-.6V5.1h-.5c-.2 0-.4-.1-.4-.4v-.3c0-.2.1-.4.4-.4h.5V2.9c0-.1 0-.2.1-.3.1-.1.1-.1.2-.1l.5-.1h.3c.1.1.1.2.1.3v1.4h1.2c.1 0 .2 0 .3.1 0 .1.1.1.1.2v.4c0 .1 0 .2-.1.3-.1.1-.2.1-.3.1h-1.2v3.9c0 .1 0 .1.1.1 0 0 .1.1.2.1h1.3c.1 0 .1.1.1.2l.1.3c0 .2-.1.3-.2.4-.1.1-.2.1-.3.1-.1 0-.3.1-.4.1-.1 0-.3 0-.4.1h-.2zm3.6-.1h-.5c-.2 0-.4-.1-.4-.4V4.4c0-.1 0-.2.1-.3.1 0 .1-.1.2-.1h.5c.2 0 .4.1.4.4V10c.1.3-.1.4-.3.4zm-.2-7.1c-.3 0-.5-.1-.6-.2-.1-.1-.1-.3-.1-.5s0-.3.1-.5c.1-.1.3-.2.6-.2s.5.1.6.2c.1.1.1.3.1.5s0 .3-.1.5c-.1.1-.3.2-.6.2zm7.3 7.1h-.5c-.2 0-.4-.1-.4-.4V6.3v-.7c0-.2-.1-.3-.1-.4l-.2-.2c-.2-.1-.5-.1-.9 0-.2.1-.4.1-.6.2-.2.1-.4.1-.6.2-.1.1-.2.1-.3.1v4.3c0 .2-.1.4-.4.4h-.5c-.2 0-.4-.1-.4-.4V4.4c0-.2.1-.4.4-.4h.5c.1 0 .2 0 .3.1.1.1.1.2.1.3v.2c.1 0 .1-.1.2-.1.2-.1.3-.2.5-.3.2-.1.4-.2.6-.2.2-.1.5-.1.7-.1.4 0 .8.1 1 .2.3.1.5.3.6.5.1.2.2.5.3.8 0 .3.1.6.1.9V10c0 .3-.2.4-.4.4zm4.8 2.3h-1.1c-.2 0-.4-.1-.5-.1-.2 0-.3-.1-.5-.2 0 0-.2-.1-.2-.2v-.5c0-.2.1-.2.2-.3h.3c.3 0 .6.1.9.1h1.5c.2 0 .3-.1.4-.2.1-.1.2-.2.2-.3 0-.1.1-.3.1-.5v-.3c-.3.1-.6.2-.8.2-.3.1-.6.1-.8.1-.5 0-.9-.1-1.3-.2-.3-.2-.6-.4-.8-.7-.2-.3-.3-.6-.4-1-.1-.4-.1-.9-.1-1.3 0-.5 0-1 .1-1.4.1-.4.2-.8.4-1.1.2-.3.5-.5.9-.7.5-.2 1.1-.3 1.9-.2.2 0 .4 0 .6.1.2 0 .4.1.6.1.2 0 .4.1.5.1.2.1.3.2.4.3 0 .1.1.2.1.3v5.4c0 .3 0 .7-.1.9-.1.3-.2.6-.4.8-.2.2-.4.4-.8.5-.3.3-.8.3-1.3.3zm-.2-7.6c-.2 0-.4 0-.6.1-.2 0-.3.1-.4.3-.1.1-.2.3-.3.6-.1.3-.1.6-.1 1.1 0 .4 0 .8.1 1.1 0 .3.1.5.2.7.1.2.2.3.4.4.3.1.8.1 1.4 0 .3 0 .6-.1.8-.2v-4c-.2 0-.4-.1-.6-.1h-.9zm13.2 5.3h-4.4c-.2 0-.4-.1-.4-.3V2.2c0-.2.1-.4.4-.4h4.3c.2 0 .4.1.4.3v.5c0 .2-.1.4-.4.4h-3.4v2.3h3c.2 0 .4.1.4.3v.5c0 .2-.1.3-.4.3h-3v2.7h3.5c.2 0 .4.1.4.4v.5s0 .2-.1.3c-.1.1-.2.1-.3.1zm0-.3zm3.8.4c-.4 0-.8-.1-1-.2-.3-.1-.5-.3-.6-.5-.1-.2-.2-.5-.3-.8 0-.3-.1-.6-.1-.9V4.4c0-.2.1-.4.4-.4h.5c.2 0 .4.1.4.4v4.4c0 .2.1.3.1.4l.2.2c.2.1.5.1.9 0 .2-.1.4-.1.6-.2.2-.1.4-.1.5-.2.1-.1.2-.1.3-.2V4.4c0-.2.1-.4.4-.4h.5c.2 0 .4.1.4.4V10c0 .2-.1.4-.4.4h-.5c-.2 0-.4-.1-.4-.4v-.2c-.1 0-.1.1-.2.1-.2.1-.3.2-.5.3-.2.1-.4.2-.6.2-.1.1-.4.1-.6.1zm6.1-.1h-.5c-.2 0-.4-.1-.4-.4V4.4c0-.2.1-.4.4-.4h.5c.2 0 .4.1.4.4v.3l.1-.1c.1-.1.3-.2.5-.2.2-.1.4-.2.6-.2.2-.1.4-.1.5-.1h.3c.1 0 .1.1.1.2l.1.5c0 .1 0 .2-.1.3 0 0-.1.1-.2.1-.2 0-.3.1-.5.1-.2.1-.4.1-.6.2-.2.1-.4.1-.5.2-.1 0-.2.1-.2.1v4.3c-.1.2-.2.3-.5.3zm6 .1c-.6 0-1.1-.1-1.5-.3-.4-.2-.6-.5-.8-.8-.2-.3-.3-.7-.3-1.1 0-.4-.1-.8-.1-1.1 0-.3 0-.6.1-1s.2-.7.3-1c.2-.3.5-.6.8-.8.4-.2.8-.3 1.4-.3.6 0 1.1.1 1.4.3.4.2.7.4.8.8.2.3.3.7.4 1 .1.4.1.8.1 1.1 0 .4 0 .7-.1 1.1 0 .4-.2.8-.3 1.1-.2.3-.5.6-.8.8-.2.1-.7.2-1.4.2zm0-5.4c-.3 0-.5 0-.7.1-.2.1-.3.2-.4.4-.1.2-.2.4-.2.7 0 .3-.1.6-.1 1s0 .7.1 1c0 .3.1.5.2.6.1.2.2.3.4.4.2.1.4.1.7.1.3 0 .6 0 .8-.1.2-.1.3-.2.4-.4.1-.2.2-.4.2-.6 0-.3.1-.6.1-1s0-.7-.1-1c0-.3-.1-.5-.2-.6-.1-.2-.3-.3-.4-.4-.2-.2-.5-.2-.8-.2zm5.2 7.5h-.5c-.1 0-.2 0-.3-.1 0-.1-.1-.2-.1-.3V4.4c0-.2.1-.4.4-.4h.5c.2 0 .4.1.4.4v.2c.1 0 .1-.1.2-.1.2-.1.3-.2.5-.3.2-.1.4-.2.6-.2.2-.1.5-.1.7-.1.4 0 .8.1 1 .2.3.2.5.4.7.7.2.3.3.6.3 1 .1.4.1.8.1 1.3s0 1-.1 1.4c-.1.4-.2.8-.4 1.1-.2.3-.5.5-.8.7-.3.1-.7.2-1.3.2-.2 0-.5 0-.8-.1-.2 0-.5-.1-.8-.2v2c0 .1 0 .2-.1.3 0 .1-.1.1-.2.1zm.3-3.5c.3.1.6.1.8.2.5.1 1.1.1 1.4 0 .1-.1.3-.2.4-.3.1-.2.2-.4.2-.7 0-.3.1-.7.1-1.1 0-.5 0-.8-.1-1.1 0-.3-.1-.5-.2-.6-.1-.1-.2-.2-.3-.2-.2-.1-.5-.1-.9 0-.2 0-.4.1-.6.2-.2.1-.4.2-.5.2-.1.1-.2.1-.3.2v3.2zm8.1 1.4c-.6 0-1.1-.1-1.4-.3-.4-.2-.6-.4-.8-.8-.2-.3-.3-.7-.4-1.1-.1-.4-.1-.8-.1-1.2 0-.3 0-.7.1-1 .1-.4.2-.8.4-1.1.2-.3.5-.6.8-.9.4-.2.8-.3 1.4-.3.6 0 1 .1 1.4.3.3.2.6.4.8.7.2.3.3.6.4.9.1.3.1.7.1 1 0 .2 0 .4-.1.6-.1.2-.3.3-.6.3H260c0 .3 0 .5.1.8.1.2.1.4.3.5.1.1.3.2.4.3.3.1.6.1 1.1.1h1.7c.1 0 .2.1.2.3l.1.3c0 .2 0 .3-.2.4-.1.1-.3.1-.4.1-.2 0-.4.1-.5.1-.2 0-.4.1-.6.1-.5-.1-.6-.1-.8-.1zM260 6.6h2.7c0-.2 0-.3-.1-.5 0-.2-.1-.4-.2-.5-.1-.2-.2-.3-.4-.4-.2-.1-.4-.1-.7-.1-.3 0-.5 0-.6.1-.2.1-.3.2-.4.3-.1.1-.2.3-.2.5s-.1.4-.1.6zM51.9 25.4h-.5c-.2 0-.4-.1-.4-.4v-7.8c0-.2.1-.3.4-.3h4.2c.2 0 .4.1.4.3v.5c0 .2-.1.4-.4.4h-3.3v2.4h2.9c.2 0 .4.1.4.3v.5c0 .2-.1.4-.4.4h-2.9V25c0 .2-.2.4-.4.4zm6.7.1c-.6 0-1.1-.2-1.4-.5-.3-.3-.4-.8-.4-1.4 0-.7.2-1.3.6-1.7.4-.4 1-.6 1.9-.6h1.6V21c0-.4-.1-.7-.3-.8-.2-.2-.5-.2-1-.2H57.9c-.3.1-.4-.2-.4-.2l-.1-.3v-.3c0-.1.1-.1.2-.2.1 0 .3-.1.5-.1s.4-.1.6-.1h1.1c.5 0 .9.1 1.2.2.3.1.6.3.7.5.2.2.3.5.3.8 0 .3.1.6.1.9V24.4H62.4c.3 0 .3.2.3.3v.3c0 .1 0 .2-.1.2-.1.1-.2.1-.3.1h-.5c-.3 0-.6-.1-.7-.2-.1-.1-.2-.3-.3-.5-.3.2-.6.3-.9.4-.3.4-.8.5-1.3.5zm.5-3.1c-.3 0-.6.1-.8.2-.2.1-.3.4-.3.9 0 .3.1.5.2.6.1.1.2.1.7.1.1 0 .3 0 .5-.1.2 0 .4-.1.5-.2.2-.1.4-.1.5-.2.1-.1.3-.1.4-.2v-1.2h-1.7zm7.3 3.1c-.6 0-1-.1-1.4-.3-.4-.2-.6-.4-.8-.7-.2-.3-.3-.7-.4-1.1-.1-.4-.1-.8-.1-1.3 0-.4 0-.8.1-1.2.1-.4.2-.7.4-1.1.2-.3.5-.6.8-.8.3-.2.8-.3 1.4-.3h.9c.2 0 .3.1.5.1s.3.1.5.2c.1 0 .2.1.2.2v.2l-.1.3c0 .1-.1.2-.2.2h-.3l-.9-.1c-.5.2-1 .2-1.3.3-.2.1-.3.2-.4.3-.1.2-.2.4-.2.6 0 .3-.1.6-.1 1s0 .8.1 1.1c0 .3.1.5.2.7.1.2.2.3.4.3.2.1.4.1.6.1h2c.1 0 .2.1.2.3l.1.3c0 .2 0 .3-.2.4-.2.1-.6.2-.9.2-.5 0-.8.1-1.1.1zm4.4-.1h-.5c-.2 0-.4-.1-.4-.4v-5.6c0-.1 0-.2.1-.3.1 0 .1-.1.3-.1h.5c.2 0 .3.1.3.4V25c0 .2-.1.4-.3.4zm-.3-7.2c-.3 0-.5-.1-.6-.2-.1-.1-.1-.3-.1-.5s0-.3.1-.5c.1-.1.3-.2.6-.2s.5.1.6.2c.1.1.1.3.1.5s0 .3-.1.5-.3.2-.6.2zm3.9 7.2c-.2 0-.4 0-.6-.1-.2-.1-.3-.1-.4-.2-.1-.1-.2-.2-.2-.4v-8.1c0-.2.1-.4.4-.4h.4c.1 0 .2 0 .3.1.1.1.1.2.1.3v7.3c0 .2 0 .2.1.3 0 0 .1.1.4.1.3 0 .4.2.4.3v.4c0 .2-.1.3-.2.4-.1 0-.2.1-.4.1-.1-.1-.2-.1-.3-.1zm3.2 0h-.5c-.2 0-.4-.1-.4-.4v-5.6c0-.1 0-.2.1-.3.1 0 .1-.1.3-.1h.5c.2 0 .3.1.3.4V25c0 .2-.1.4-.3.4zm-.3-7.2c-.3 0-.5-.1-.6-.2-.1-.1-.1-.3-.1-.5s0-.3.1-.5c.1-.1.3-.2.6-.2s.5.1.6.2c.1.1.1.3.1.5s0 .3-.1.5-.3.2-.6.2zm4.5 7.3c-.3 0-.5 0-.7-.1-.2-.1-.4-.2-.5-.3-.1-.1-.2-.3-.2-.5s-.1-.4-.1-.6v-3.9h-.5c-.2 0-.4-.1-.4-.4v-.3c0-.2.1-.4.4-.4h.5v-1.2c0-.1 0-.2.1-.3.1 0 .1-.1.2-.1l.5-.1h.3c.1.1.1.2.1.3V19h1.2c.1 0 .2 0 .3.1 0 .1.1.1.1.2v.4c0 .1 0 .2-.1.3-.1.1-.2.1-.3.1h-1.2V24c0 .1 0 .1.1.1 0 0 .1.1.2.1H83.2c.1 0 .1.1.1.2l.1.3c0 .2-.1.3-.2.4-.1.1-.2.1-.3.1-.1 0-.3.1-.4.1-.1 0-.3 0-.4.1-.1 0-.2.1-.3.1zm4.5 2h-.6c-.1 0-.2-.1-.2-.1-.1-.1-.1-.2 0-.3l.7-1.9-2.2-5.8v-.2c0-.1.1-.2.3-.2h.7c.1 0 .2 0 .3.1 0 0 .1.1.1.2l1.6 4.4c.1-.2.2-.4.2-.7l.3-.9 1-2.8c.1-.2.2-.3.3-.3h.7c.1 0 .2.1.2.1.1.1.1.2 0 .3l-2.9 7.9c0 .1-.1.1-.1.2h-.4zm3-8.3zm7.9 6.3c-.6 0-1.1-.1-1.5-.3-.4-.2-.6-.5-.8-.8-.2-.3-.3-.7-.3-1.1 0-.4-.1-.8-.1-1.1 0-.3 0-.6.1-1s.2-.7.3-1c.2-.3.5-.6.8-.8.4-.2.8-.3 1.4-.3.6 0 1.1.1 1.4.3.4.2.7.4.8.7.2.3.3.7.4 1 .1.4.1.8.1 1.1 0 .4 0 .7-.1 1.1 0 .4-.2.8-.3 1.1-.2.3-.5.6-.8.8-.3.1-.8.3-1.4.3zm0-5.5c-.3 0-.5 0-.7.1-.2.1-.3.2-.4.4-.1.2-.2.4-.2.7 0 .3-.1.6-.1 1s0 .7.1 1c0 .3.1.5.2.7.1.2.2.3.4.4.2.1.4.1.7.1.3 0 .6 0 .8-.1.2-.1.3-.2.4-.4.1-.2.2-.4.2-.6 0-.3.1-.6.1-1s0-.7-.1-1c0-.3-.1-.5-.2-.6-.1-.2-.2-.3-.4-.4-.3-.2-.5-.3-.8-.3zm5.6 5.4h-.5c-.2 0-.4-.1-.4-.4v-4.9h-.5c-.2 0-.4-.1-.4-.4v-.3c0-.2.1-.4.4-.4h.5v-.6c0-.3 0-.6.1-.9.1-.3.2-.5.4-.7.2-.2.4-.3.7-.4.3-.1.6-.2 1-.2h.7c.1 0 .3 0 .4.1.2 0 .3.1.4.1.1.1.2.1.2.2v.2l-.1.3c0 .1-.1.2-.2.2h-.3c-.3 0-.5-.1-.6-.1h-.4c-.4 0-.7.1-.8.2-.2.2-.2.4-.2.8v.8h1.4c.2 0 .4.1.4.4v.4c0 .2-.1.4-.4.4h-1.4V25c0 .2-.1.4-.4.4zm9.6.1c-.3 0-.5 0-.7-.1-.2-.1-.4-.2-.5-.3-.1-.1-.2-.3-.2-.5s-.1-.4-.1-.6v-3.9h-.5c-.2 0-.4-.1-.4-.4v-.3c0-.2.1-.4.4-.4h.5v-1.2c0-.1 0-.2.1-.3.1 0 .1-.1.2-.1l.5-.1h.3c.1.1.1.2.1.3V19h1.2c.1 0 .2 0 .3.1 0 .1.1.1.1.2v.4c0 .1 0 .2-.1.3-.1.1-.2.1-.3.1h-1.2V24c0 .1 0 .1.1.1 0 0 .1.1.2.1H113.8c.1 0 .1.1.1.2l.1.3c0 .2-.1.3-.2.4-.1.1-.2.1-.3.1-.1 0-.3.1-.4.1-.1 0-.3 0-.4.1-.1 0-.2.1-.3.1zm7.4-.1h-.5c-.2 0-.4-.1-.4-.4v-3.8-.6c0-.1-.1-.3-.1-.3l-.2-.2c-.2-.1-.5-.1-.9 0-.2.1-.4.1-.6.2-.2.1-.4.1-.6.2-.1.1-.2.1-.3.1V25c0 .2-.1.4-.4.4h-.5c-.2 0-.4-.1-.4-.4v-8.4c0-.2.1-.4.4-.4h.5c.2 0 .4.1.4.4v2.9c.1 0 .1-.1.2-.1l.6-.3c.2-.1.4-.2.6-.2.2-.1.5-.1.7-.1.4 0 .8.1 1 .2.3.1.5.3.6.5.1.2.2.5.3.8 0 .3.1.6.1.9V25c-.1.2-.2.4-.5.4zm4.6.1c-.6 0-1.1-.1-1.4-.3-.4-.2-.6-.4-.8-.8-.2-.3-.3-.7-.4-1.1-.1-.4-.1-.8-.1-1.2 0-.3 0-.6.1-1s.2-.8.4-1.1c.2-.3.5-.6.8-.9.4-.2.8-.3 1.4-.3.6 0 1 .1 1.4.3.3.2.6.4.8.7.2.3.3.6.4.9.1.3.1.7.1 1 0 .2 0 .4-.1.6-.1.2-.3.3-.6.3H123c0 .3 0 .5.1.8.1.2.1.4.3.5.1.1.3.2.4.3.3.1.6.1 1.1.1h1.7c.1 0 .2.1.2.3l.1.3c0 .2 0 .3-.2.4-.1.1-.3.1-.4.1-.2 0-.4.1-.5.1-.2 0-.4.1-.6.1-.4-.1-.6-.1-.8-.1zm-1.4-4h2.7c0-.2 0-.3-.1-.5 0-.2-.1-.4-.2-.5-.1-.2-.2-.3-.4-.4-.2-.1-.4-.1-.7-.1-.3 0-.5 0-.6.1-.2.1-.3.2-.4.3-.1.1-.2.3-.2.5s0 .4-.1.6zm14.4 3.9H133c-.2 0-.4-.1-.4-.3v-7.8c0-.2.1-.4.4-.4h4.3c.2 0 .4.1.4.3v.5c0 .2-.1.4-.4.4h-3.4v2.3h3c.2 0 .4.1.4.3v.5c0 .2-.1.3-.4.3h-3v2.7h3.5c.2 0 .3.1.3.4v.4s0 .2-.1.3c0 0-.1.1-.2.1zm3.8.1c-.4 0-.8-.1-1-.2-.3-.1-.5-.3-.6-.5-.1-.2-.2-.5-.3-.8 0-.3-.1-.6-.1-.9v-3.7c0-.2.1-.4.4-.4h.5c.2 0 .4.1.4.4v4.3c0 .2.1.3.1.4l.2.2c.2.1.5.1.9 0 .2-.1.4-.1.6-.2.2-.1.4-.2.5-.2.1-.1.2-.1.3-.2v-4.3c0-.2.1-.4.4-.4h.5c.2 0 .4.1.4.4V25c0 .2-.1.4-.4.4h-.5c-.2 0-.4-.1-.4-.4v-.2c-.1 0-.1.1-.2.1-.2.1-.3.2-.5.3-.2.1-.4.2-.6.2-.1 0-.3.1-.6.1zm6.2-.1h-.5c-.2 0-.4-.1-.4-.4v-5.6c0-.2.1-.4.4-.4h.5c.2 0 .4.1.4.4v.3l.1-.1c.1-.1.3-.2.5-.2.2-.1.4-.2.6-.2.2-.1.4-.1.5-.1h.3c.1 0 .1.1.1.2l.1.5c0 .1 0 .2-.1.3 0 0-.1.1-.2.1-.2 0-.3.1-.5.1-.2.1-.4.1-.6.2-.2.1-.4.1-.5.2-.1 0-.2.1-.2.1V25c-.2.2-.3.4-.5.4zm5.9.1c-.6 0-1.1-.1-1.5-.3-.4-.2-.6-.5-.8-.8-.2-.3-.3-.7-.3-1.1 0-.4-.1-.8-.1-1.1 0-.3 0-.6.1-1s.2-.7.3-1c.2-.3.5-.6.8-.8.4-.2.8-.3 1.4-.3.6 0 1.1.1 1.4.3.4.2.7.4.8.7.2.3.3.7.4 1 .1.4.1.8.1 1.1 0 .4 0 .7-.1 1.1 0 .4-.2.8-.3 1.1-.2.3-.5.6-.8.8-.2.1-.7.3-1.4.3zm0-5.5c-.3 0-.5 0-.7.1-.2.1-.3.2-.4.4-.1.2-.2.4-.2.7 0 .3-.1.6-.1 1s0 .7.1 1c0 .3.1.5.2.7.1.2.2.3.4.4.2.1.4.1.7.1.3 0 .6 0 .8-.1.2-.1.3-.2.4-.4.1-.2.2-.4.2-.6 0-.3.1-.6.1-1s0-.7-.1-1c0-.3-.1-.5-.2-.6-.1-.2-.2-.3-.4-.4-.2-.2-.4-.3-.8-.3zm5.2 7.5h-.5c-.1 0-.2 0-.3-.1 0-.1-.1-.1-.1-.3v-7.8c0-.2.1-.4.4-.4h.5c.2 0 .4.1.4.4v.2c.1 0 .1-.1.2-.1.2-.1.3-.2.5-.3.2-.1.4-.2.6-.2.2-.1.4-.1.7-.1.4 0 .8.1 1 .2.3.1.5.4.7.7.2.3.3.6.3 1 .1.4.1.8.1 1.3s0 1-.1 1.4c-.1.4-.2.8-.4 1.1-.2.3-.5.5-.8.7-.5.2-1.2.3-2.1.1-.2 0-.5-.1-.8-.2v2c0 .1 0 .2-.1.3 0 .1-.1.1-.2.1zm.3-3.4c.3.1.6.1.8.2.5.1 1.1.1 1.4 0 .1-.1.3-.2.4-.3.1-.2.2-.4.2-.7 0-.3.1-.7.1-1.1 0-.5 0-.8-.1-1.1 0-.3-.1-.5-.2-.6-.1-.1-.2-.2-.3-.2-.2-.1-.5-.1-.9 0-.2 0-.4.1-.6.2-.2.1-.4.2-.5.2-.1.1-.2.1-.3.2v3.2zm8.1 1.4c-.6 0-1.1-.1-1.4-.3-.4-.2-.6-.4-.8-.8-.2-.3-.3-.7-.4-1.1-.1-.4-.1-.8-.1-1.2 0-.3 0-.7.1-1 .1-.4.2-.7.4-1.1.2-.3.5-.6.8-.9.4-.2.8-.3 1.4-.3.6 0 1 .1 1.4.3.3.2.6.4.8.7.2.3.3.6.4.9.1.3.1.7.1 1 0 .2 0 .4-.1.6-.1.2-.3.3-.6.3h-3.4c0 .3 0 .5.1.8.1.2.1.4.3.5.1.1.3.2.4.3.3.1.6.1 1.1.1h1.7c.1 0 .2.1.2.3l.1.3c0 .2 0 .3-.2.4-.1.1-.3.1-.4.1-.2 0-.4.1-.5.1-.2 0-.4.1-.6.1-.4-.1-.6-.1-.8-.1zm-1.4-4h2.7c0-.2 0-.3-.1-.5 0-.2-.1-.4-.2-.5-.1-.2-.2-.3-.4-.4-.2-.1-.4-.1-.7-.1-.3 0-.5 0-.6.1-.2.1-.3.2-.4.3-.1.1-.2.3-.2.5s-.1.4-.1.6zm7.2 4c-.7 0-1.1-.2-1.4-.5-.3-.3-.4-.8-.4-1.4 0-.7.2-1.3.6-1.7.4-.4 1-.6 1.9-.6h1.6V21c0-.4-.1-.7-.3-.8-.2-.2-.5-.2-1-.2H171.9c-.3.1-.4-.2-.4-.2l-.1-.3v-.3c0-.1.1-.1.2-.2.1 0 .3-.1.5-.1s.4-.1.6-.1h1.1c.5 0 .9.1 1.2.2.3.1.6.3.7.5.2.2.3.5.3.8 0 .3.1.6.1.9V24.4H176.4c.3 0 .3.2.3.3v.3c0 .1 0 .2-.1.2-.1.1-.2.1-.3.1h-.5c-.3 0-.6-.1-.7-.2-.1-.1-.2-.3-.3-.5-.3.2-.6.3-.9.4-.2.4-.7.5-1.2.5zm.5-3.1c-.3 0-.6.1-.8.2-.2.1-.3.4-.3.9 0 .3.1.5.2.6.1.1.2.1.7.1.1 0 .3 0 .5-.1.2 0 .4-.1.5-.2.2-.1.4-.1.5-.2.1-.1.3-.1.4-.2v-1.2h-1.7zm9.6 3h-.5c-.2 0-.4-.1-.4-.4v-3.7-.7c0-.2-.1-.3-.1-.4l-.2-.2c-.2-.1-.5-.1-.9 0-.2.1-.4.1-.6.2-.2.1-.4.1-.6.2-.1.1-.2.1-.3.1V25c0 .2-.1.4-.4.4h-.5c-.2 0-.4-.1-.4-.4v-5.6c0-.2.1-.4.4-.4h.5c.1 0 .2 0 .2.1.1.1.1.2.1.3v.2c.1 0 .1-.1.2-.1.2-.1.3-.2.5-.3.2-.1.4-.2.6-.2.2-.1.5-.1.7-.1.4 0 .8.1 1 .2.3.1.5.3.6.5.1.2.2.5.3.8 0 .3.1.6.1.9V25c.1.2-.1.4-.3.4zm9.1 0c-1.5 0-2.4-.6-2.8-1.7-.1-.2-.2-.5-.2-.7 0-.2-.1-.5-.1-.8v-5c0-.1 0-.2.1-.3.1-.1.1-.1.3-.1h.5c.1 0 .2 0 .2.1.1.1.1.2.1.3v5.1c0 .7.2 1.2.5 1.5.3.3.8.5 1.4.5.6 0 1.1-.2 1.4-.5.3-.3.5-.8.5-1.5v-5.1c0-.1 0-.2.1-.3.1 0 .2-.1.3-.1h.5c.1 0 .2 0 .2.1.1.1.1.2.1.3V23c0 .2-.1.5-.2.7-.3.6-.6 1.1-1.2 1.3-.5.3-1 .4-1.7.4zm9.8 0h-.5c-.2 0-.4-.1-.4-.4v-3.7-.7c0-.2-.1-.3-.1-.4l-.2-.2c-.2-.1-.5-.1-.9 0-.2.1-.4.1-.6.2-.2.1-.4.1-.6.2-.1.1-.2.1-.3.1V25c0 .2-.1.4-.4.4h-.5c-.2 0-.4-.1-.4-.4v-5.6c0-.2.1-.4.4-.4h.5c.1 0 .2 0 .2.1.1.1.1.2.1.3v.2c.1 0 .1-.1.2-.1.2-.1.3-.2.5-.3.2-.1.4-.2.6-.2.2-.1.5-.1.7-.1.4 0 .8.1 1 .2.3.1.5.3.6.5.1.2.2.5.3.8 0 .3.1.6.1.9V25c0 .2-.1.4-.3.4zm3 0h-.5c-.2 0-.4-.1-.4-.4v-5.6c0-.1 0-.2.1-.3.1 0 .1-.1.3-.1h.5c.2 0 .4.1.4.4V25c0 .2-.2.4-.4.4zm-.2-7.2c-.3 0-.5-.1-.6-.2-.1-.1-.1-.3-.1-.5s0-.3.1-.5c.1-.1.3-.2.6-.2s.5.1.6.2c.1.1.1.3.1.5s0 .3-.1.5-.3.2-.6.2zm5 7.3c-.6 0-1.1-.1-1.5-.3-.4-.2-.6-.5-.8-.8-.2-.3-.3-.7-.3-1.1 0-.4-.1-.8-.1-1.1 0-.3 0-.6.1-1s.2-.7.3-1c.2-.3.5-.6.8-.8.4-.2.8-.3 1.4-.3.6 0 1.1.1 1.4.3.4.2.7.4.8.8.2.3.3.6.4 1 .1.4.1.8.1 1.1 0 .4 0 .7-.1 1.1 0 .4-.2.8-.3 1.1-.2.3-.5.6-.8.8-.3 0-.8.2-1.4.2zm0-5.5c-.3 0-.5 0-.7.1-.2.1-.3.2-.4.4-.1.2-.2.4-.2.7 0 .3-.1.6-.1 1s0 .7.1 1c0 .3.1.5.2.7.1.2.2.3.4.4.2.1.4.1.7.1.3 0 .6 0 .8-.1.2-.1.3-.2.4-.4.1-.2.2-.4.2-.6 0-.3.1-.6.1-1s0-.7-.1-1c0-.3-.1-.5-.2-.6-.1-.2-.2-.3-.4-.4-.2-.2-.5-.3-.8-.3zm9.1 5.4h-.5c-.2 0-.4-.1-.4-.4v-3.7-.7c0-.2-.1-.3-.1-.4l-.2-.2c-.2-.1-.5-.1-.9 0-.2.1-.4.1-.6.2-.2.1-.4.1-.6.2-.1.1-.2.1-.3.1V25c0 .2-.1.4-.4.4h-.5c-.2 0-.4-.1-.4-.4v-5.6c0-.2.1-.4.4-.4h.5c.1 0 .2 0 .2.1.1.1.1.2.1.3v.2c.1 0 .1-.1.2-.1.2-.1.3-.2.5-.3.2-.1.4-.2.6-.2.2-.1.5-.1.7-.1.4 0 .8.1 1 .2.3.1.5.3.6.5.1.2.2.5.3.8 0 .3.1.6.1.9V25c.1.2 0 .4-.3.4z"/></svg>